<mxfile host="app.diagrams.net" modified="2022-03-24T12:34:28.686Z" agent="5.0 (Macintosh; Intel Mac OS X 10_15_7) AppleWebKit/537.36 (KHTML, like Gecko) Chrome/99.0.4844.83 Safari/537.36" etag="Hziiisy23lDn4MG0QMj1" version="16.6.1" type="github">
  <diagram id="fjeT-Q81lyp6K0VjsVOl" name="Page-1">
    <mxGraphModel dx="1366" dy="852" grid="1" gridSize="10" guides="1" tooltips="1" connect="1" arrows="1" fold="1" page="1" pageScale="1" pageWidth="827" pageHeight="1169" math="0" shadow="0">
      <root>
        <mxCell id="0" />
        <mxCell id="1" parent="0" />
        <mxCell id="vat9FCL66bpgNvRTvxZE-51" value="备注：&lt;br&gt;卡片上应有手动指定部署应用的输入" style="ellipse;shape=cloud;whiteSpace=wrap;html=1;" vertex="1" parent="1">
          <mxGeometry x="970" y="180" width="270" height="80" as="geometry" />
        </mxCell>
        <mxCell id="vat9FCL66bpgNvRTvxZE-2" value="" style="rounded=0;whiteSpace=wrap;html=1;labelBackgroundColor=#FFF4C3;fillColor=none;dashed=1;dashPattern=1 1;" vertex="1" parent="1">
          <mxGeometry x="240" y="280" width="130" height="140" as="geometry" />
        </mxCell>
        <mxCell id="vat9FCL66bpgNvRTvxZE-5" value="&lt;font style=&quot;font-size: 18px&quot;&gt;独立发布流程&lt;br&gt;&lt;/font&gt;" style="text;html=1;strokeColor=none;fillColor=none;align=center;verticalAlign=middle;whiteSpace=wrap;rounded=0;" vertex="1" parent="1">
          <mxGeometry x="420.5" y="50" width="263" height="45" as="geometry" />
        </mxCell>
        <mxCell id="vat9FCL66bpgNvRTvxZE-6" value="" style="edgeStyle=orthogonalEdgeStyle;rounded=0;orthogonalLoop=1;jettySize=auto;html=1;" edge="1" parent="1" source="vat9FCL66bpgNvRTvxZE-7" target="vat9FCL66bpgNvRTvxZE-34">
          <mxGeometry relative="1" as="geometry" />
        </mxCell>
        <mxCell id="vat9FCL66bpgNvRTvxZE-7" value="流水线将release分支自动合入master分支" style="whiteSpace=wrap;html=1;rounded=1;fillColor=#f8cecc;strokeColor=#b85450;" vertex="1" parent="1">
          <mxGeometry x="862" y="1141.5000000000002" width="120" height="60" as="geometry" />
        </mxCell>
        <mxCell id="vat9FCL66bpgNvRTvxZE-54" value="" style="edgeStyle=orthogonalEdgeStyle;rounded=0;orthogonalLoop=1;jettySize=auto;html=1;" edge="1" parent="1" source="vat9FCL66bpgNvRTvxZE-10" target="vat9FCL66bpgNvRTvxZE-53">
          <mxGeometry relative="1" as="geometry" />
        </mxCell>
        <mxCell id="vat9FCL66bpgNvRTvxZE-10" value="流水线发布对应子应用的PPE小流量" style="whiteSpace=wrap;html=1;rounded=1;fillColor=#fff2cc;strokeColor=#d6b656;" vertex="1" parent="1">
          <mxGeometry x="484" y="750" width="120" height="60" as="geometry" />
        </mxCell>
        <mxCell id="vat9FCL66bpgNvRTvxZE-57" value="" style="edgeStyle=orthogonalEdgeStyle;rounded=0;orthogonalLoop=1;jettySize=auto;html=1;" edge="1" parent="1" source="vat9FCL66bpgNvRTvxZE-13" target="vat9FCL66bpgNvRTvxZE-31">
          <mxGeometry relative="1" as="geometry" />
        </mxCell>
        <mxCell id="vat9FCL66bpgNvRTvxZE-58" value="测试完成" style="edgeLabel;html=1;align=center;verticalAlign=middle;resizable=0;points=[];" vertex="1" connectable="0" parent="vat9FCL66bpgNvRTvxZE-57">
          <mxGeometry x="-0.0407" y="4" relative="1" as="geometry">
            <mxPoint as="offset" />
          </mxGeometry>
        </mxCell>
        <mxCell id="vat9FCL66bpgNvRTvxZE-13" value="通知子应用QA进行PPE小流量测试" style="whiteSpace=wrap;html=1;rounded=1;fillColor=#dae8fc;strokeColor=#6c8ebf;" vertex="1" parent="1">
          <mxGeometry x="484" y="960.0000000000002" width="120" height="60" as="geometry" />
        </mxCell>
        <mxCell id="vat9FCL66bpgNvRTvxZE-14" style="edgeStyle=orthogonalEdgeStyle;rounded=0;orthogonalLoop=1;jettySize=auto;html=1;exitX=0.5;exitY=1;exitDx=0;exitDy=0;" edge="1" parent="1" source="vat9FCL66bpgNvRTvxZE-16" target="vat9FCL66bpgNvRTvxZE-7">
          <mxGeometry relative="1" as="geometry" />
        </mxCell>
        <mxCell id="vat9FCL66bpgNvRTvxZE-15" value="部署完成" style="edgeLabel;html=1;align=center;verticalAlign=middle;resizable=0;points=[];" vertex="1" connectable="0" parent="vat9FCL66bpgNvRTvxZE-14">
          <mxGeometry x="-0.1455" y="-3" relative="1" as="geometry">
            <mxPoint as="offset" />
          </mxGeometry>
        </mxCell>
        <mxCell id="vat9FCL66bpgNvRTvxZE-16" value="流水线开放全量部署" style="whiteSpace=wrap;html=1;rounded=1;fillColor=#f8cecc;strokeColor=#b85450;" vertex="1" parent="1">
          <mxGeometry x="862" y="1001.5000000000002" width="120" height="60" as="geometry" />
        </mxCell>
        <mxCell id="vat9FCL66bpgNvRTvxZE-17" value="" style="edgeStyle=orthogonalEdgeStyle;rounded=0;orthogonalLoop=1;jettySize=auto;html=1;" edge="1" parent="1" source="vat9FCL66bpgNvRTvxZE-18" target="vat9FCL66bpgNvRTvxZE-20">
          <mxGeometry relative="1" as="geometry" />
        </mxCell>
        <mxCell id="vat9FCL66bpgNvRTvxZE-18" value="发车人点击卡片上Deploy&lt;br&gt;(部署完成后为ReDeploy)" style="rounded=1;whiteSpace=wrap;html=1;fillColor=#dae8fc;strokeColor=#6c8ebf;" vertex="1" parent="1">
          <mxGeometry x="437" y="524" width="214" height="60" as="geometry" />
        </mxCell>
        <mxCell id="vat9FCL66bpgNvRTvxZE-52" value="" style="edgeStyle=orthogonalEdgeStyle;rounded=0;orthogonalLoop=1;jettySize=auto;html=1;" edge="1" parent="1" source="vat9FCL66bpgNvRTvxZE-20" target="vat9FCL66bpgNvRTvxZE-10">
          <mxGeometry relative="1" as="geometry" />
        </mxCell>
        <mxCell id="vat9FCL66bpgNvRTvxZE-20" value="流水线识别要部署的&lt;br&gt;子应用(可能有多个)" style="whiteSpace=wrap;html=1;rounded=1;fillColor=#fff2cc;strokeColor=#d6b656;" vertex="1" parent="1">
          <mxGeometry x="471" y="640" width="146" height="60" as="geometry" />
        </mxCell>
        <mxCell id="vat9FCL66bpgNvRTvxZE-25" value="" style="edgeStyle=orthogonalEdgeStyle;rounded=0;orthogonalLoop=1;jettySize=auto;html=1;" edge="1" parent="1" source="vat9FCL66bpgNvRTvxZE-29" target="vat9FCL66bpgNvRTvxZE-33">
          <mxGeometry relative="1" as="geometry" />
        </mxCell>
        <mxCell id="vat9FCL66bpgNvRTvxZE-26" value="YES" style="edgeLabel;html=1;align=center;verticalAlign=middle;resizable=0;points=[];" vertex="1" connectable="0" parent="vat9FCL66bpgNvRTvxZE-25">
          <mxGeometry x="-0.1717" relative="1" as="geometry">
            <mxPoint as="offset" />
          </mxGeometry>
        </mxCell>
        <mxCell id="vat9FCL66bpgNvRTvxZE-27" value="" style="edgeStyle=orthogonalEdgeStyle;rounded=0;orthogonalLoop=1;jettySize=auto;html=1;labelBackgroundColor=#FFFFFF;fontSize=12;" edge="1" parent="1" source="vat9FCL66bpgNvRTvxZE-29" target="vat9FCL66bpgNvRTvxZE-40">
          <mxGeometry relative="1" as="geometry" />
        </mxCell>
        <mxCell id="vat9FCL66bpgNvRTvxZE-28" value="NO" style="edgeLabel;html=1;align=center;verticalAlign=middle;resizable=0;points=[];fontSize=12;" vertex="1" connectable="0" parent="vat9FCL66bpgNvRTvxZE-27">
          <mxGeometry x="-0.3294" y="-4" relative="1" as="geometry">
            <mxPoint x="4" y="4" as="offset" />
          </mxGeometry>
        </mxCell>
        <mxCell id="vat9FCL66bpgNvRTvxZE-29" value="流水线检测release分支对应子应用代码是否慢于master" style="rhombus;whiteSpace=wrap;html=1;rounded=1;fillColor=#f8cecc;strokeColor=#b85450;" vertex="1" parent="1">
          <mxGeometry x="827" y="651.5" width="190" height="80" as="geometry" />
        </mxCell>
        <mxCell id="vat9FCL66bpgNvRTvxZE-30" style="edgeStyle=orthogonalEdgeStyle;rounded=0;orthogonalLoop=1;jettySize=auto;html=1;exitX=1;exitY=0.5;exitDx=0;exitDy=0;entryX=0;entryY=0.5;entryDx=0;entryDy=0;labelBackgroundColor=#FFFFFF;fontSize=12;" edge="1" parent="1" source="vat9FCL66bpgNvRTvxZE-31" target="vat9FCL66bpgNvRTvxZE-29">
          <mxGeometry relative="1" as="geometry" />
        </mxCell>
        <mxCell id="vat9FCL66bpgNvRTvxZE-31" value="发车人在发布群唤起机器人&lt;br&gt;&lt;b&gt;@version master&lt;br&gt;online:&lt;/b&gt;&lt;b&gt;release-product/20220324&lt;/b&gt;" style="whiteSpace=wrap;html=1;rounded=1;fillColor=#f8cecc;strokeColor=#b85450;" vertex="1" parent="1">
          <mxGeometry x="432" y="1081.5" width="224" height="60" as="geometry" />
        </mxCell>
        <mxCell id="vat9FCL66bpgNvRTvxZE-32" style="edgeStyle=orthogonalEdgeStyle;rounded=0;orthogonalLoop=1;jettySize=auto;html=1;exitX=0;exitY=0.5;exitDx=0;exitDy=0;labelBackgroundColor=#FFFFFF;fontSize=12;" edge="1" parent="1" source="vat9FCL66bpgNvRTvxZE-33" target="vat9FCL66bpgNvRTvxZE-18">
          <mxGeometry relative="1" as="geometry" />
        </mxCell>
        <mxCell id="vat9FCL66bpgNvRTvxZE-33" value="卡片提示应拉取master代码并重新部署ppe" style="whiteSpace=wrap;html=1;rounded=1;fillColor=#f8cecc;strokeColor=#b85450;" vertex="1" parent="1">
          <mxGeometry x="862" y="524" width="120" height="60" as="geometry" />
        </mxCell>
        <mxCell id="vat9FCL66bpgNvRTvxZE-34" value="通知上线成功&lt;br&gt;流程结束" style="ellipse;whiteSpace=wrap;html=1;rounded=1;fillColor=#f8cecc;strokeColor=#b85450;" vertex="1" parent="1">
          <mxGeometry x="862" y="1241.5000000000002" width="120" height="60" as="geometry" />
        </mxCell>
        <mxCell id="vat9FCL66bpgNvRTvxZE-35" value="RD触发部分" style="rounded=1;whiteSpace=wrap;html=1;fillColor=#dae8fc;strokeColor=#6c8ebf;" vertex="1" parent="1">
          <mxGeometry x="250" y="307.5" width="110" height="40" as="geometry" />
        </mxCell>
        <mxCell id="vat9FCL66bpgNvRTvxZE-36" value="&lt;span style=&quot;background-color: rgb(255 , 244 , 195)&quot;&gt;流水线触发部分&lt;/span&gt;" style="whiteSpace=wrap;html=1;rounded=1;fillColor=#fff2cc;strokeColor=#d6b656;" vertex="1" parent="1">
          <mxGeometry x="250" y="367.5" width="110" height="40" as="geometry" />
        </mxCell>
        <mxCell id="vat9FCL66bpgNvRTvxZE-37" value="&lt;span style=&quot;font-size: 12px&quot;&gt;图例&lt;/span&gt;" style="text;html=1;strokeColor=none;fillColor=none;align=center;verticalAlign=middle;whiteSpace=wrap;rounded=0;dashed=1;dashPattern=1 1;labelBackgroundColor=none;fontSize=12;" vertex="1" parent="1">
          <mxGeometry x="250" y="280" width="30" height="17.5" as="geometry" />
        </mxCell>
        <mxCell id="vat9FCL66bpgNvRTvxZE-39" value="" style="edgeStyle=orthogonalEdgeStyle;rounded=0;orthogonalLoop=1;jettySize=auto;html=1;labelBackgroundColor=#FFFFFF;fontSize=12;" edge="1" parent="1" source="vat9FCL66bpgNvRTvxZE-40" target="vat9FCL66bpgNvRTvxZE-42">
          <mxGeometry relative="1" as="geometry" />
        </mxCell>
        <mxCell id="vat9FCL66bpgNvRTvxZE-40" value="流水线通知QA卡点" style="whiteSpace=wrap;html=1;fillColor=#f8cecc;strokeColor=#b85450;rounded=1;" vertex="1" parent="1">
          <mxGeometry x="862" y="791.5" width="120" height="60" as="geometry" />
        </mxCell>
        <mxCell id="vat9FCL66bpgNvRTvxZE-41" value="" style="edgeStyle=orthogonalEdgeStyle;rounded=0;orthogonalLoop=1;jettySize=auto;html=1;labelBackgroundColor=#FFFFFF;fontSize=12;" edge="1" parent="1" source="vat9FCL66bpgNvRTvxZE-42" target="vat9FCL66bpgNvRTvxZE-16">
          <mxGeometry relative="1" as="geometry" />
        </mxCell>
        <mxCell id="vat9FCL66bpgNvRTvxZE-42" value="流水线通知RD卡点" style="whiteSpace=wrap;html=1;fillColor=#f8cecc;strokeColor=#b85450;rounded=1;" vertex="1" parent="1">
          <mxGeometry x="862" y="891.5" width="120" height="60" as="geometry" />
        </mxCell>
        <mxCell id="vat9FCL66bpgNvRTvxZE-43" value="" style="edgeStyle=orthogonalEdgeStyle;rounded=0;orthogonalLoop=1;jettySize=auto;html=1;labelBackgroundColor=#FFFFFF;fontSize=12;" edge="1" parent="1" source="vat9FCL66bpgNvRTvxZE-44" target="vat9FCL66bpgNvRTvxZE-46">
          <mxGeometry relative="1" as="geometry" />
        </mxCell>
        <mxCell id="vat9FCL66bpgNvRTvxZE-44" value="司机 @version master&amp;nbsp;&lt;b&gt;release:product&lt;/b&gt;" style="rounded=1;whiteSpace=wrap;html=1;fillColor=#dae8fc;strokeColor=#6c8ebf;" vertex="1" parent="1">
          <mxGeometry x="416.5" y="226.25" width="255" height="60" as="geometry" />
        </mxCell>
        <mxCell id="vat9FCL66bpgNvRTvxZE-45" value="" style="edgeStyle=orthogonalEdgeStyle;rounded=0;orthogonalLoop=1;jettySize=auto;html=1;labelBackgroundColor=#FFFFFF;fontSize=12;" edge="1" parent="1" source="vat9FCL66bpgNvRTvxZE-46" target="vat9FCL66bpgNvRTvxZE-48">
          <mxGeometry relative="1" as="geometry" />
        </mxCell>
        <mxCell id="vat9FCL66bpgNvRTvxZE-46" value="基于master自动生成一条新分支&lt;br&gt;&lt;b&gt;release-product/20220324&lt;/b&gt;&lt;br&gt;并弹出卡片" style="rounded=1;whiteSpace=wrap;html=1;fillColor=#fff2cc;strokeColor=#d6b656;" vertex="1" parent="1">
          <mxGeometry x="441" y="316.25" width="206" height="60" as="geometry" />
        </mxCell>
        <mxCell id="vat9FCL66bpgNvRTvxZE-49" value="" style="edgeStyle=orthogonalEdgeStyle;rounded=0;orthogonalLoop=1;jettySize=auto;html=1;" edge="1" parent="1" source="vat9FCL66bpgNvRTvxZE-48" target="vat9FCL66bpgNvRTvxZE-18">
          <mxGeometry relative="1" as="geometry" />
        </mxCell>
        <mxCell id="vat9FCL66bpgNvRTvxZE-48" value="乘客提MR将分支合入&lt;br&gt;&lt;b&gt;release-product/20220324&lt;/b&gt;" style="rounded=1;whiteSpace=wrap;html=1;fillColor=#dae8fc;strokeColor=#6c8ebf;" vertex="1" parent="1">
          <mxGeometry x="441" y="413.75" width="206" height="60" as="geometry" />
        </mxCell>
        <mxCell id="vat9FCL66bpgNvRTvxZE-55" value="" style="edgeStyle=orthogonalEdgeStyle;rounded=0;orthogonalLoop=1;jettySize=auto;html=1;" edge="1" parent="1" source="vat9FCL66bpgNvRTvxZE-53" target="vat9FCL66bpgNvRTvxZE-13">
          <mxGeometry relative="1" as="geometry" />
        </mxCell>
        <mxCell id="vat9FCL66bpgNvRTvxZE-53" value="&lt;span style=&quot;background-color: rgb(255 , 244 , 195)&quot;&gt;PPE发布完成，&lt;br&gt;通知相关人员&lt;/span&gt;" style="whiteSpace=wrap;html=1;rounded=1;fillColor=#fff2cc;strokeColor=#d6b656;" vertex="1" parent="1">
          <mxGeometry x="484" y="860" width="120" height="60" as="geometry" />
        </mxCell>
      </root>
    </mxGraphModel>
  </diagram>
</mxfile>
